<svg viewBox="0 0 680 610" xmlns="http://www.w3.org/2000/svg" style="width:52px;height:52px;">
  <polygon points="340.00,295.00 340.00,285.00 340.00,295.00" fill="#e8c95e" opacity="0.38"/>
  <polygon points="339.78,282.20 340.00,192.21 340.22,282.20" fill="#833725" opacity="0.95"/>
  <polygon points="340.17,282.17 343.12,191.73 340.61,282.18" fill="#833624" opacity="0.95"/>
  <polygon points="340.56,282.15 346.44,188.47 340.99,282.18" fill="#7d3221" opacity="0.95"/>
  <polygon points="340.95,282.14 350.04,184.55 341.38,282.18" fill="#752d1d" opacity="0.95"/>
  <polygon points="341.34,282.15 353.72,182.03 341.78,282.20" fill="#6e2a19" opacity="0.95"/>
  <polygon points="341.73,282.16 357.31,181.28 342.17,282.23" fill="#6b2918" opacity="0.95"/>
  <polygon points="342.12,282.19 360.65,182.33 342.56,282.27" fill="#6c2919" opacity="0.95"/>
  <polygon points="342.52,282.23 363.64,184.89 342.95,282.32" fill="#712b1b" opacity="0.95"/>
  <polygon points="342.91,282.28 366.94,185.72 343.34,282.39" fill="#712b1b" opacity="0.95"/>
  <polygon points="343.30,282.35 370.50,185.59 343.72,282.46" fill="#6f2a1a" opacity="0.95"/>
  <polygon points="344.84,282.72 379.46,199.75 345.26,282.89" fill="#833725" opacity="0.95"/>
  <polygon points="337.15,282.74 316.30,184.58 337.57,282.65" fill="#702b1a" opacity="0.95"/>
  <polygon points="337.51,282.63 319.87,185.14 337.94,282.55" fill="#732c1c" opacity="0.95"/>
  <polygon points="337.88,282.53 323.57,187.06 338.31,282.47" fill="#792f1f" opacity="0.95"/>
  <polygon points="338.26,282.44 326.79,186.19 338.69,282.39" fill="#782e1e" opacity="0.95"/>
  <polygon points="338.63,282.37 330.05,185.51 339.07,282.33" fill="#772e1e" opacity="0.95"/>
  <polygon points="339.01,282.30 333.42,186.26 339.45,282.27" fill="#792f1f" opacity="0.95"/>
  <polygon points="339.40,282.25 336.78,188.56 339.83,282.23" fill="#7d3221" opacity="0.95"/>
  <polygon points="336.79,282.86 313.06,185.70 337.20,282.76" fill="#712b1b" opacity="0.95"/>
  <polygon points="336.43,283.00 310.32,188.52 336.84,282.88" fill="#762d1d" opacity="0.95"/>
  <polygon points="336.08,283.14 308.13,192.73 336.49,283.01" fill="#7c3121" opacity="0.95"/>
  <polygon points="335.73,283.29 306.35,197.49 336.14,283.15" fill="#833725" opacity="0.95"/>
  <polygon points="335.39,283.45 303.52,198.82 335.79,283.30" fill="#833725" opacity="0.95"/>
  <polygon points="335.06,283.63 301.02,200.89 335.45,283.46" fill="#853826" opacity="0.95"/>
  <polygon points="334.73,283.81 297.08,199.65 335.12,283.64" fill="#813523" opacity="0.95"/>
  <polygon points="334.41,284.00 293.59,199.68 334.79,283.82" fill="#7e3322" opacity="0.95"/>
  <polygon points="334.09,284.20 290.63,200.92 334.47,284.01" fill="#7e3222" opacity="0.95"/>
  <polygon points="333.79,284.41 288.15,203.07 334.15,284.20" fill="#7f3322" opacity="0.95"/>
  <polygon points="333.49,284.63 283.97,202.32 333.85,284.41" fill="#7b3020" opacity="0.95"/>
  <polygon points="333.19,284.86 280.17,202.46 333.54,284.63" fill="#762e1d" opacity="0.95"/>
  <polygon points="332.91,285.09 277.15,203.95 333.25,284.85" fill="#752d1d" opacity="0.95"/>
  <polygon points="332.63,285.34 275.12,206.83 332.97,285.09" fill="#782e1e" opacity="0.95"/>
  <polygon points="332.36,285.59 274.11,210.89 332.69,285.33" fill="#7d3221" opacity="0.95"/>
  <polygon points="332.10,285.85 273.92,215.71 332.42,285.58" fill="#833724" opacity="0.95"/>
  <polygon points="331.85,286.11 272.00,218.24 332.16,285.84" fill="#843825" opacity="0.95"/>
  <polygon points="331.60,286.38 270.17,220.82 331.91,286.10" fill="#853826" opacity="0.95"/>
  <polygon points="331.37,286.66 269.11,224.11 331.66,286.37" fill="#883b27" opacity="0.95"/>
  <polygon points="331.14,286.95 265.74,225.10 331.43,286.65" fill="#853826" opacity="0.95"/>
  <polygon points="330.93,287.24 263.18,226.95 331.20,286.93" fill="#843725" opacity="0.95"/>
  <polygon points="330.72,287.54 261.34,229.45 330.99,287.22" fill="#843825" opacity="0.95"/>
  <polygon points="330.53,287.84 257.74,230.55 330.78,287.51" fill="#813523" opacity="0.95"/>
  <polygon points="330.34,288.15 253.87,231.63 330.58,287.82" fill="#7d3121" opacity="0.95"/>
  <polygon points="330.16,288.46 251.06,233.61 330.39,288.12" fill="#7b3020" opacity="0.95"/>
  <polygon points="329.99,288.77 249.56,236.52 330.22,288.43" fill="#7c3020" opacity="0.95"/>
  <polygon points="329.84,289.09 249.39,240.22 330.05,288.75" fill="#7e3322" opacity="0.95"/>
  <polygon points="329.69,289.42 250.32,244.42 329.89,289.06" fill="#833725" opacity="0.95"/>
  <polygon points="329.55,289.75 249.90,247.71 329.74,289.39" fill="#853926" opacity="0.94"/>
  <polygon points="329.43,290.08 248.76,250.57 329.61,289.71" fill="#863926" opacity="0.93"/>
  <polygon points="329.31,290.41 248.57,253.85 329.48,290.04" fill="#883b27" opacity="0.93"/>
  <polygon points="329.21,290.75 249.46,257.50 329.36,290.38" fill="#8b3e2a" opacity="0.93"/>
  <polygon points="329.11,291.09 247.52,259.93 329.26,290.71" fill="#8a3d29" opacity="0.93"/>
  <polygon points="329.03,291.43 246.40,262.70 329.16,291.05" fill="#8a3c29" opacity="0.93"/>
  <polygon points="328.96,291.77 244.09,265.11 329.07,291.39" fill="#873a27" opacity="0.93"/>
  <polygon points="328.89,292.11 240.53,267.27 329.00,291.73" fill="#833724" opacity="0.93"/>
  <polygon points="328.84,292.45 238.07,269.88 328.94,292.07" fill="#803423" opacity="0.93"/>
  <polygon points="328.80,292.80 237.02,272.89 328.88,292.41" fill="#7f3422" opacity="0.93"/>
  <polygon points="328.77,293.14 237.43,276.20 328.84,292.75" fill="#813523" opacity="0.93"/>
  <polygon points="328.75,293.49 239.10,279.64 328.81,293.10" fill="#853826" opacity="0.93"/>
  <polygon points="328.74,293.83 240.26,282.89 328.79,293.44" fill="#873a27" opacity="0.93"/>
  <polygon points="328.74,294.17 239.79,285.89 328.77,293.78" fill="#873a27" opacity="0.93"/>
  <polygon points="328.75,294.52 240.32,288.97 328.77,294.12" fill="#883b28" opacity="0.93"/>
  <polygon points="328.77,294.86 242.01,292.04 328.78,294.46" fill="#8b3e29" opacity="0.92"/>
  <polygon points="328.80,295.20 244.77,295.00 328.80,294.80" fill="#90422c" opacity="0.92"/>
  <polygon points="328.84,295.53 244.49,297.89 328.83,295.14" fill="#8f412c" opacity="0.92"/>
  <polygon points="328.90,295.87 243.87,300.82 328.87,295.48" fill="#8e402b" opacity="0.92"/>
  <polygon points="328.96,296.20 241.08,303.99 328.92,295.81" fill="#893c28" opacity="0.92"/>
  <polygon points="329.03,296.53 239.26,307.23 328.98,296.14" fill="#863926" opacity="0.92"/>
  <polygon points="329.11,296.85 238.73,310.41 329.05,296.47" fill="#843825" opacity="0.92"/>
  <polygon points="329.20,297.18 239.60,313.40 329.13,296.80" fill="#853826" opacity="0.92"/>
  <polygon points="329.30,297.49 241.68,316.11 329.22,297.12" fill="#873a27" opacity="0.92"/>
  <polygon points="329.41,297.81 244.17,318.62 329.32,297.43" fill="#8a3d29" opacity="0.92"/>
  <polygon points="329.53,298.12 244.39,321.65 329.43,297.75" fill="#893c28" opacity="0.92"/>
  <polygon points="329.66,298.42 245.50,324.45 329.55,298.06" fill="#8a3c29" opacity="0.92"/>
  <polygon points="329.80,298.72 247.69,326.86 329.67,298.36" fill="#8c3e2a" opacity="0.92"/>
  <polygon points="329.94,299.02 250.90,328.79 329.81,298.66" fill="#90422c" opacity="0.91"/>
  <polygon points="330.10,299.31 254.87,330.26 329.95,298.96" fill="#95462f" opacity="0.91"/>
  <polygon points="330.26,299.59 255.92,332.84 330.10,299.25" fill="#95462f" opacity="0.91"/>
  <polygon points="330.43,299.87 254.33,336.71 330.26,299.53" fill="#90422c" opacity="0.91"/>
  <polygon points="330.61,300.14 253.47,340.42 330.43,299.81" fill="#8c3e2a" opacity="0.91"/>
  <polygon points="330.79,300.41 253.64,343.71 330.61,300.08" fill="#893c28" opacity="0.91"/>
  <polygon points="330.99,300.67 254.95,346.42 330.79,300.35" fill="#893c28" opacity="0.91"/>
  <polygon points="331.19,300.92 257.27,348.49 330.99,300.61" fill="#8a3d29" opacity="0.91"/>
  <polygon points="331.40,301.17 260.34,349.98 331.18,300.86" fill="#8d3f2b" opacity="0.91"/>
  <polygon points="331.61,301.40 261.55,352.73 331.39,301.10" fill="#8c3f2a" opacity="0.91"/>
  <polygon points="331.83,301.64 263.17,355.19 331.60,301.34" fill="#8c3e2a" opacity="0.91"/>
  <polygon points="332.06,301.86 265.64,356.97 331.82,301.57" fill="#8d3f2b" opacity="0.91"/>
  <polygon points="332.29,302.08 268.93,357.96 332.05,301.80" fill="#90422c" opacity="0.91"/>
  <polygon points="332.53,302.28 272.86,358.20 332.28,302.01" fill="#95462f" opacity="0.90"/>
  <polygon points="332.78,302.48 277.10,357.90 332.52,302.22" fill="#9a4a32" opacity="0.90"/>
  <polygon points="333.03,302.68 277.44,361.45 332.76,302.42" fill="#964730" opacity="0.90"/>
  <polygon points="333.28,302.86 277.77,365.24 333.01,302.62" fill="#92442e" opacity="0.90"/>
  <polygon points="333.54,303.03 278.79,368.44 333.26,302.80" fill="#8f412c" opacity="0.90"/>
  <polygon points="333.81,303.20 280.60,370.82 333.52,302.98" fill="#8e402b" opacity="0.90"/>
  <polygon points="334.08,303.36 283.11,372.32 333.78,303.14" fill="#8e412b" opacity="0.90"/>
  <polygon points="334.35,303.51 286.13,373.05 334.05,303.30" fill="#90422d" opacity="0.90"/>
  <polygon points="334.62,303.65 288.37,374.86 334.32,303.45" fill="#90422c" opacity="0.90"/>
  <polygon points="334.90,303.78 290.47,376.93 334.59,303.59" fill="#8f412c" opacity="0.90"/>
  <polygon points="335.19,303.90 293.11,378.13 334.87,303.73" fill="#8f412c" opacity="0.90"/>
  <polygon points="335.47,304.02 296.26,378.34 335.15,303.85" fill="#91432d" opacity="0.90"/>
  <polygon points="335.76,304.12 299.78,377.60 335.43,303.97" fill="#95462f" opacity="0.90"/>
  <polygon points="336.05,304.22 303.48,376.14 335.72,304.07" fill="#9a4a32" opacity="0.89"/>
  <polygon points="336.34,304.31 306.56,375.74 336.01,304.17" fill="#9c4c34" opacity="0.89"/>
  <polygon points="336.63,304.38 308.10,379.13 336.30,304.26" fill="#984931" opacity="0.89"/>
  <polygon points="336.93,304.45 310.01,381.90 336.59,304.34" fill="#95462f" opacity="0.89"/>
  <polygon points="337.22,304.51 312.33,383.79 336.88,304.40" fill="#93452e" opacity="0.89"/>
  <polygon points="337.52,304.56 314.99,384.71 337.18,304.47" fill="#93452e" opacity="0.89"/>
  <polygon points="337.82,304.60 317.88,384.76 337.47,304.52" fill="#94452f" opacity="0.89"/>
  <polygon points="338.11,304.63 320.61,385.35 337.77,304.56" fill="#94462f" opacity="0.89"/>
  <polygon points="338.41,304.65 323.16,386.89 338.06,304.59" fill="#93442e" opacity="0.89"/>
  <polygon points="338.71,304.67 325.91,387.55 338.36,304.61" fill="#92442e" opacity="0.89"/>
  <polygon points="339.00,304.67 328.81,387.14 338.65,304.63" fill="#94452f" opacity="0.89"/>
  <polygon points="339.30,304.67 331.76,385.71 338.95,304.64" fill="#964730" opacity="0.89"/>
  <polygon points="339.59,304.65 334.65,383.45 339.24,304.63" fill="#9a4b33" opacity="0.89"/>
  <polygon points="339.88,304.63 337.38,381.56 339.54,304.62" fill="#9e4e34" opacity="0.88"/>
  <polygon points="340.17,304.60 340.00,381.22 339.83,304.60" fill="#9e4e34" opacity="0.88"/>
  <polygon points="340.46,304.56 342.67,383.20 340.12,304.57" fill="#9b4b33" opacity="0.88"/>
  <polygon points="340.75,304.51 345.41,384.38 340.40,304.53" fill="#994a32" opacity="0.88"/>
  <polygon points="341.03,304.45 348.15,384.65 340.69,304.48" fill="#984931" opacity="0.88"/>
  <polygon points="341.31,304.39 350.82,384.09 340.97,304.43" fill="#994932" opacity="0.88"/>
  <polygon points="341.59,304.31 353.45,383.40 341.25,304.36" fill="#994a32" opacity="0.88"/>
  <polygon points="341.86,304.23 356.36,384.25 341.53,304.29" fill="#974831" opacity="0.88"/>
  <polygon points="342.14,304.14 359.17,384.31 341.80,304.21" fill="#964730" opacity="0.88"/>
  <polygon points="342.40,304.04 361.79,383.40 342.07,304.12" fill="#964730" opacity="0.88"/>
  <polygon points="342.67,303.93 364.12,381.52 342.34,304.02" fill="#984931" opacity="0.88"/>
  <polygon points="342.92,303.82 366.13,378.85 342.60,303.92" fill="#9c4c33" opacity="0.88"/>
  <polygon points="343.18,303.70 367.90,375.85 342.86,303.81" fill="#9e4f34" opacity="0.87"/>
  <polygon points="343.43,303.57 370.24,374.75 343.12,303.69" fill="#9f5034" opacity="0.87"/>
  <polygon points="343.67,303.43 372.39,373.21 343.37,303.56" fill="#9f5134" opacity="0.87"/>
  <polygon points="343.91,303.29 375.32,373.48 343.61,303.43" fill="#9e4e34" opacity="0.87"/>
  <polygon points="344.15,303.14 377.99,373.02 343.85,303.29" fill="#9d4d34" opacity="0.87"/>
  <polygon points="344.38,302.99 380.34,371.87 344.09,303.14" fill="#9d4d34" opacity="0.87"/>
  <polygon points="344.60,302.82 382.41,370.20 344.31,302.99" fill="#9e4e34" opacity="0.87"/>
  <polygon points="344.82,302.66 385.40,370.10 344.54,302.83" fill="#9c4c33" opacity="0.87"/>
  <polygon points="345.03,302.48 388.16,369.49 344.76,302.66" fill="#9a4b33" opacity="0.87"/>
  <polygon points="345.24,302.30 390.47,368.12 344.97,302.49" fill="#9a4a32" opacity="0.87"/>
  <polygon points="345.44,302.11 392.22,365.97 345.17,302.31" fill="#9b4b33" opacity="0.87"/>
  <polygon points="345.63,301.92 393.40,363.16 345.37,302.12" fill="#9e4e34" opacity="0.87"/>
  <polygon points="345.82,301.73 394.12,359.94 345.57,301.93" fill="#9f5134" opacity="0.86"/>
  <polygon points="346.00,301.52 395.75,357.93 345.75,301.74" fill="#a05234" opacity="0.86"/>
  <polygon points="346.17,301.32 397.32,355.89 345.93,301.54" fill="#a05234" opacity="0.86"/>
  <polygon points="346.34,301.11 398.45,353.45 346.11,301.34" fill="#a15434" opacity="0.86"/>
  <polygon points="346.49,300.89 400.80,352.24 346.27,301.13" fill="#a05234" opacity="0.86"/>
  <polygon points="346.65,300.67 402.70,350.54 346.43,300.91" fill="#a05234" opacity="0.86"/>
  <polygon points="346.79,300.45 404.18,348.49 346.59,300.70" fill="#a05234" opacity="0.86"/>
  <polygon points="346.93,300.23 406.58,347.16 346.73,300.48" fill="#9f5134" opacity="0.86"/>
  <polygon points="347.06,300.00 409.09,345.84 346.87,300.25" fill="#9e4f34" opacity="0.86"/>
  <polygon points="347.18,299.76 411.01,344.02 347.00,300.02" fill="#9e4e34" opacity="0.86"/>
  <polygon points="347.29,299.53 412.21,341.69 347.12,299.79" fill="#9e4f34" opacity="0.86"/>
  <polygon points="347.40,299.29 412.68,338.94 347.24,299.56" fill="#9f5034" opacity="0.86"/>
  <polygon points="347.50,299.05 412.54,335.91 347.35,299.32" fill="#a05334" opacity="0.85"/>
  <polygon points="347.59,298.81 413.10,333.37 347.45,299.08" fill="#a15434" opacity="0.85"/>
  <polygon points="347.67,298.56 414.01,331.04 347.54,298.84" fill="#a15433" opacity="0.85"/>
  <polygon points="347.75,298.32 414.40,328.48 347.62,298.60" fill="#a25533" opacity="0.85"/>
  <polygon points="347.82,298.07 414.19,325.73 347.70,298.36" fill="#a35733" opacity="0.85"/>
  <polygon points="347.88,297.82 415.44,323.61 347.77,298.11" fill="#a25733" opacity="0.85"/>
  <polygon points="347.93,297.57 416.24,321.31 347.83,297.86" fill="#a25733" opacity="0.85"/>
  <polygon points="347.98,297.33 417.63,319.19 347.88,297.62" fill="#a25633" opacity="0.85"/>
  <polygon points="348.01,297.08 419.63,317.20 347.93,297.37" fill="#a15434" opacity="0.85"/>
  <polygon points="348.04,296.83 421.02,314.97 347.97,297.12" fill="#a05334" opacity="0.85"/>
  <polygon points="348.06,296.58 421.66,312.53 348.00,296.87" fill="#a05234" opacity="0.85"/>
  <polygon points="348.08,296.33 421.52,309.94 348.02,296.62" fill="#a15334" opacity="0.84"/>
  <polygon points="348.08,296.08 420.71,307.28 348.04,296.38" fill="#a25533" opacity="0.84"/>
  <polygon points="348.08,295.83 420.14,304.73 348.04,296.13" fill="#a25733" opacity="0.84"/>
  <polygon points="348.07,295.58 420.37,302.30 348.04,295.88" fill="#a25733" opacity="0.84"/>
  <polygon points="348.05,295.34 420.07,299.84 348.04,295.64" fill="#a35833" opacity="0.84"/>
  <polygon points="348.03,295.09 419.15,297.39 348.02,295.39" fill="#a45933" opacity="0.84"/>
  <polygon points="348.00,294.85 417.67,295.00 348.00,295.15" fill="#a55c32" opacity="0.84"/>
  <polygon points="347.96,294.61 417.70,292.65 347.97,294.91" fill="#a55c32" opacity="0.84"/>
  <polygon points="347.91,294.37 417.88,290.29 347.93,294.67" fill="#a55b33" opacity="0.84"/>
  <polygon points="347.86,294.14 419.12,287.81 347.89,294.43" fill="#a45933" opacity="0.84"/>
  <polygon points="347.80,293.91 419.83,285.31 347.84,294.20" fill="#a35733" opacity="0.84"/>
  <polygon points="347.73,293.68 419.87,282.84 347.78,293.96" fill="#a25733" opacity="0.84"/>
  <polygon points="347.66,293.45 419.18,280.49 347.71,293.73" fill="#a35733" opacity="0.83"/>
  <polygon points="347.58,293.23 417.87,278.29 347.64,293.51" fill="#a35933" opacity="0.83"/>
  <polygon points="347.49,293.00 416.32,276.19 347.56,293.28" fill="#a45a33" opacity="0.83"/>
  <polygon points="347.40,292.79 415.89,273.84 347.48,293.06" fill="#a45a33" opacity="0.83"/>
  <polygon points="347.30,292.58 414.98,271.63 347.39,292.85" fill="#a45a33" opacity="0.83"/>
  <polygon points="347.19,292.37 413.53,269.63 347.29,292.64" fill="#a55b32" opacity="0.83"/>
  <polygon points="347.08,292.16 411.55,267.87 347.18,292.43" fill="#a65d32" opacity="0.83"/>
  <polygon points="346.97,291.96 409.18,266.35 347.07,292.22" fill="#a76032" opacity="0.83"/>
  <polygon points="346.84,291.77 408.22,264.30 346.96,292.02" fill="#a76032" opacity="0.83"/>
  <polygon points="346.72,291.57 408.52,261.64 346.84,291.83" fill="#a65e32" opacity="0.83"/>
  <polygon points="346.58,291.39 408.43,259.09 346.71,291.64" fill="#a55c32" opacity="0.83"/>
  <polygon points="346.44,291.21 407.82,256.75 346.58,291.45" fill="#a55b32" opacity="0.82"/>
  <polygon points="346.30,291.03 406.63,254.72 346.44,291.27" fill="#a55b32" opacity="0.82"/>
  <polygon points="346.15,290.86 404.94,253.01 346.30,291.09" fill="#a55c32" opacity="0.82"/>
  <polygon points="346.00,290.69 402.87,251.60 346.15,290.92" fill="#a65e32" opacity="0.82"/>
  <polygon points="345.84,290.53 401.68,249.62 346.00,290.75" fill="#a65d32" opacity="0.82"/>
  <polygon points="345.68,290.38 400.26,247.79 345.85,290.59" fill="#a65d32" opacity="0.82"/>
  <polygon points="345.51,290.23 398.43,246.30 345.69,290.44" fill="#a65e32" opacity="0.82"/>
  <polygon points="345.34,290.08 396.20,245.21 345.52,290.29" fill="#a76032" opacity="0.82"/>
  <polygon points="345.17,289.95 393.65,244.49 345.36,290.14" fill="#a86232" opacity="0.82"/>
  <polygon points="344.99,289.81 390.95,244.05 345.19,290.01" fill="#aa6431" opacity="0.82"/>
  <polygon points="344.82,289.69 390.06,241.82 345.01,289.87" fill="#a96331" opacity="0.82"/>
  <polygon points="344.63,289.57 389.15,239.52 344.83,289.75" fill="#a86132" opacity="0.81"/>
  <polygon points="344.45,289.46 387.90,237.52 344.65,289.63" fill="#a76032" opacity="0.81"/>
  <polygon points="344.26,289.35 386.28,235.93 344.47,289.51" fill="#a76032" opacity="0.81"/>
  <polygon points="344.07,289.25 384.32,234.77 344.28,289.40" fill="#a76032" opacity="0.81"/>
  <polygon points="343.88,289.15 382.11,234.00 344.09,289.30" fill="#a86132" opacity="0.81"/>
  <polygon points="343.68,289.06 380.25,232.75 343.90,289.21" fill="#a86132" opacity="0.81"/>
  <polygon points="343.48,288.98 378.44,231.41 343.71,289.12" fill="#a86132" opacity="0.81"/>
  <polygon points="343.29,288.91 376.38,230.50 343.51,289.04" fill="#a86132" opacity="0.81"/>
  <polygon points="343.09,288.84 374.08,230.06 343.32,288.96" fill="#a96231" opacity="0.81"/>
  <polygon points="342.89,288.78 371.61,230.08 343.12,288.89" fill="#aa6431" opacity="0.81"/>
  <polygon points="342.69,288.72 369.05,230.44 342.92,288.83" fill="#ab6631" opacity="0.80"/>
  <polygon points="342.48,288.67 366.78,230.35 342.72,288.77" fill="#ab6831" opacity="0.80"/>
  <polygon points="342.28,288.63 365.18,228.60 342.52,288.72" fill="#ab6631" opacity="0.80"/>
  <polygon points="342.08,288.59 363.41,227.16 342.32,288.67" fill="#aa6531" opacity="0.80"/>
  <polygon points="341.87,288.56 361.46,226.15 342.12,288.63" fill="#aa6431" opacity="0.80"/>
  <polygon points="341.67,288.54 359.35,225.59 341.91,288.60" fill="#aa6431" opacity="0.80"/>
  <polygon points="341.47,288.52 357.14,225.45 341.71,288.58" fill="#aa6531" opacity="0.80"/>
  <polygon points="341.27,288.51 355.01,225.10 341.51,288.56" fill="#aa6531" opacity="0.80"/>
  <polygon points="341.06,288.50 352.94,224.36 341.31,288.55" fill="#aa6531" opacity="0.80"/>
  <polygon points="340.86,288.50 350.80,224.05 341.11,288.54" fill="#aa6531" opacity="0.80"/>
  <polygon points="340.66,288.51 348.59,224.22 340.91,288.54" fill="#aa6631" opacity="0.80"/>
  <polygon points="340.46,288.52 346.37,224.86 340.71,288.55" fill="#ab6731" opacity="0.79"/>
  <polygon points="340.27,288.54 344.18,225.87 340.51,288.56" fill="#ac6930" opacity="0.79"/>
  <polygon points="340.07,288.57 342.06,226.75 340.32,288.58" fill="#ad6a30" opacity="0.79"/>
  <polygon points="339.88,288.60 340.00,226.99 340.12,288.60" fill="#ad6b30" opacity="0.79"/>
  <polygon points="339.69,288.64 337.92,226.29 339.93,288.63" fill="#ac6a30" opacity="0.79"/>
  <polygon points="339.50,288.68 335.82,225.97 339.74,288.67" fill="#ac6930" opacity="0.79"/>
  <polygon points="339.31,288.73 333.73,226.05 339.55,288.71" fill="#ac6930" opacity="0.79"/>
  <polygon points="339.12,288.78 331.68,226.51 339.36,288.76" fill="#ac6930" opacity="0.79"/>
  <polygon points="338.94,288.84 329.66,227.05 339.18,288.81" fill="#ac6a30" opacity="0.79"/>
  <polygon points="338.76,288.91 327.54,226.99 339.00,288.87" fill="#ac6930" opacity="0.79"/>
  <polygon points="338.59,288.98 325.46,227.29 338.82,288.93" fill="#ac6930" opacity="0.78"/>
  <polygon points="338.41,289.05 323.49,228.00 338.64,289.00" fill="#ac6930" opacity="0.78"/>
  <polygon points="338.24,289.13 321.64,229.14 338.47,289.07" fill="#ad6a30" opacity="0.78"/>
  <polygon points="338.08,289.22 319.94,230.61 338.30,289.15" fill="#ad6c30" opacity="0.78"/>
  <polygon points="337.91,289.31 318.34,232.24 338.13,289.23" fill="#ae6d30" opacity="0.78"/>
  <polygon points="337.75,289.40 316.54,233.13 337.97,289.32" fill="#af6e30" opacity="0.78"/>
  <polygon points="337.60,289.50 314.82,234.22 337.81,289.41" fill="#af6e30" opacity="0.78"/>
  <polygon points="337.45,289.60 312.82,234.61 337.65,289.51" fill="#ae6e30" opacity="0.78"/>
  <polygon points="337.30,289.71 310.95,235.33 337.50,289.61" fill="#ae6d30" opacity="0.78"/>
  <polygon points="337.15,289.82 309.21,236.34 337.36,289.72" fill="#ae6e30" opacity="0.77"/>
  <polygon points="337.02,289.94 307.61,237.57 337.21,289.83" fill="#af6e30" opacity="0.77"/>
  <polygon points="336.88,290.06 305.68,238.22 337.07,289.94" fill="#ae6d30" opacity="0.77"/>
  <polygon points="336.75,290.18 303.86,239.10 336.94,290.06" fill="#ae6d30" opacity="0.77"/>
  <polygon points="336.62,290.30 302.23,240.29 336.81,290.18" fill="#ae6d30" opacity="0.77"/>
  <polygon points="336.50,290.43 300.85,241.79 336.68,290.30" fill="#af6e30" opacity="0.77"/>
  <polygon points="336.38,290.56 299.70,243.56 336.56,290.43" fill="#af6f30" opacity="0.77"/>
  <polygon points="336.27,290.70 298.74,245.50 336.44,290.56" fill="#b07130" opacity="0.77"/>
  <polygon points="336.16,290.84 297.47,246.99 336.33,290.69" fill="#b07130" opacity="0.77"/>
  <polygon points="336.06,290.98 296.24,248.52 336.22,290.83" fill="#b17230" opacity="0.77"/>
  <polygon points="335.96,291.12 295.21,250.21 336.12,290.96" fill="#b17231" opacity="0.76"/>
  <polygon points="335.87,291.26 293.75,251.46 336.02,291.11" fill="#b17230" opacity="0.76"/>
  <polygon points="335.78,291.41 292.49,252.91 335.93,291.25" fill="#b17230" opacity="0.76"/>
  <polygon points="335.70,291.56 291.41,254.50 335.84,291.39" fill="#b27331" opacity="0.76"/>
  <polygon points="335.62,291.71 290.03,255.85 335.75,291.54" fill="#b17230" opacity="0.76"/>
  <polygon points="335.55,291.86 288.64,257.21 335.68,291.69" fill="#b17230" opacity="0.76"/>
  <polygon points="335.48,292.01 287.50,258.76 335.60,291.84" fill="#b17230" opacity="0.76"/>
  <polygon points="335.42,292.16 286.64,260.50 335.54,291.99" fill="#b17230" opacity="0.76"/>
  <polygon points="335.37,292.32 286.07,262.40 335.47,292.14" fill="#b27331" opacity="0.76"/>
  <polygon points="335.31,292.48 285.73,264.39 335.41,292.30" fill="#b37431" opacity="0.75"/>
  <polygon points="335.27,292.63 285.18,266.23 335.36,292.45" fill="#b37531" opacity="0.75"/>
  <polygon points="335.23,292.79 284.54,268.00 335.31,292.61" fill="#b37532" opacity="0.75"/>
  <polygon points="335.19,292.95 284.11,269.85 335.27,292.76" fill="#b47632" opacity="0.75"/>
  <polygon points="335.16,293.10 283.90,271.76 335.24,292.92" fill="#b47732" opacity="0.75"/>
  <polygon points="335.13,293.26 283.24,273.48 335.20,293.07" fill="#b47732" opacity="0.75"/>
  <polygon points="335.11,293.42 282.77,275.25 335.18,293.23" fill="#b57832" opacity="0.75"/>
  <polygon points="335.10,293.58 282.14,276.97 335.15,293.39" fill="#b57732" opacity="0.75"/>
  <polygon points="335.08,293.73 281.35,278.65 335.14,293.54" fill="#b47732" opacity="0.75"/>
  <polygon points="335.08,293.89 280.79,280.41 335.12,293.70" fill="#b47732" opacity="0.75"/>
  <polygon points="335.08,294.04 280.51,282.23 335.12,293.85" fill="#b47732" opacity="0.74"/>
  <polygon points="335.08,294.20 280.51,284.10 335.12,294.01" fill="#b57832" opacity="0.74"/>
  <polygon points="335.09,294.35 280.74,285.98 335.12,294.16" fill="#b57933" opacity="0.74"/>
  <polygon points="335.10,294.50 280.93,287.83 335.13,294.31" fill="#b67933" opacity="0.74"/>
  <polygon points="335.12,294.65 280.91,289.63 335.14,294.46" fill="#b67a33" opacity="0.74"/>
  <polygon points="335.14,294.80 281.08,291.44 335.15,294.61" fill="#b67a33" opacity="0.74"/>
  <polygon points="335.17,294.95 281.46,293.23 335.18,294.76" fill="#b77b34" opacity="0.74"/>
  <polygon points="335.20,295.09 282.04,295.00 335.20,294.91" fill="#b87c34" opacity="0.74"/>
  <polygon points="335.24,295.24 282.20,296.75 335.23,295.05" fill="#b87c34" opacity="0.73"/>
  <polygon points="335.28,295.38 282.35,298.49 335.27,295.19" fill="#b87d34" opacity="0.73"/>
  <polygon points="335.32,295.52 282.24,300.25 335.30,295.33" fill="#b87c34" opacity="0.73"/>
  <polygon points="335.37,295.65 282.32,302.00 335.35,295.47" fill="#b77c34" opacity="0.73"/>
  <polygon points="335.42,295.79 282.62,303.73 335.39,295.61" fill="#b87c34" opacity="0.73"/>
  <polygon points="335.48,295.92 283.16,305.42 335.44,295.74" fill="#b87c34" opacity="0.73"/>
  <polygon points="335.54,296.05 283.90,307.04 335.50,295.87" fill="#b87d34" opacity="0.73"/>
  <polygon points="335.60,296.18 284.72,308.63 335.56,296.00" fill="#b97e35" opacity="0.73"/>
  <polygon points="335.67,296.30 285.28,310.26 335.62,296.13" fill="#b97e35" opacity="0.73"/>
  <polygon points="335.74,296.42 285.99,311.83 335.69,296.25" fill="#b97f35" opacity="0.72"/>
  <polygon points="335.81,296.54 286.87,313.33 335.75,296.37" fill="#ba7f35" opacity="0.72"/>
  <polygon points="335.89,296.65 287.91,314.76 335.83,296.49" fill="#ba8036" opacity="0.72"/>
  <polygon points="335.97,296.76 289.07,316.10 335.90,296.60" fill="#bb8136" opacity="0.72"/>
  <polygon points="336.05,296.87 289.89,317.55 335.98,296.71" fill="#bb8236" opacity="0.72"/>
  <polygon points="336.14,296.98 290.44,319.13 336.06,296.82" fill="#bb8136" opacity="0.72"/>
  <polygon points="336.23,297.08 291.12,320.66 336.15,296.93" fill="#bb8136" opacity="0.72"/>
  <polygon points="336.32,297.17 291.95,322.10 336.23,297.03" fill="#bb8136" opacity="0.72"/>
  <polygon points="336.41,297.27 292.95,323.44 336.32,297.12" fill="#bb8236" opacity="0.71"/>
  <polygon points="336.51,297.36 294.09,324.68 336.42,297.22" fill="#bb8236" opacity="0.71"/>
  <polygon points="336.60,297.44 295.33,325.83 336.51,297.31" fill="#bc8336" opacity="0.71"/>
  <polygon points="336.70,297.53 296.40,327.08 336.61,297.40" fill="#bc8337" opacity="0.71"/>
  <polygon points="336.81,297.61 297.54,328.27 336.70,297.48" fill="#bc8337" opacity="0.71"/>
  <polygon points="336.91,297.68 298.79,329.35 336.81,297.56" fill="#bd8437" opacity="0.71"/>
  <polygon points="337.01,297.75 300.14,330.31 336.91,297.63" fill="#bd8537" opacity="0.71"/>
  <polygon points="337.12,297.82 301.57,331.18 337.01,297.70" fill="#be8537" opacity="0.71"/>
  <polygon points="337.23,297.88 303.04,331.96 337.12,297.77" fill="#be8638" opacity="0.70"/>
  <polygon points="337.34,297.94 304.16,333.07 337.22,297.84" fill="#be8638" opacity="0.70"/>
  <polygon points="337.45,298.00 305.31,334.15 337.33,297.90" fill="#be8638" opacity="0.70"/>
  <polygon points="337.56,298.05 306.55,335.14 337.44,297.95" fill="#be8638" opacity="0.70"/>
  <polygon points="337.67,298.10 307.87,336.00 337.55,298.00" fill="#be8738" opacity="0.70"/>
  <polygon points="337.78,298.14 309.27,336.76 337.66,298.05" fill="#bf8738" opacity="0.70"/>
  <polygon points="337.90,298.18 310.73,337.41 337.77,298.10" fill="#bf8838" opacity="0.70"/>
  <polygon points="338.01,298.22 312.13,338.10 337.88,298.14" fill="#bf8838" opacity="0.70"/>
  <polygon points="338.12,298.25 313.54,338.78 337.99,298.17" fill="#bf8838" opacity="0.69"/>
  <polygon points="338.24,298.28 314.99,339.34 338.11,298.21" fill="#c08939" opacity="0.69"/>
  <polygon points="338.35,298.30 316.49,339.79 338.22,298.23" fill="#c08939" opacity="0.69"/>
  <polygon points="338.46,298.32 318.02,340.15 338.33,298.26" fill="#c18a39" opacity="0.69"/>
  <polygon points="338.58,298.34 319.56,340.42 338.44,298.28" fill="#c18b39" opacity="0.69"/>
  <polygon points="338.69,298.35 321.06,340.72 338.56,298.30" fill="#c18b3a" opacity="0.69"/>
  <polygon points="338.80,298.36 322.47,341.22 338.67,298.31" fill="#c18c3a" opacity="0.69"/>
  <polygon points="338.91,298.37 323.91,341.63 338.78,298.32" fill="#c28c3a" opacity="0.69"/>
  <polygon points="339.02,298.37 325.38,341.93 338.89,298.33" fill="#c28c3a" opacity="0.68"/>
  <polygon points="339.13,298.37 326.86,342.14 339.00,298.33" fill="#c28c3a" opacity="0.68"/>
  <polygon points="339.24,298.36 328.35,342.25 339.11,298.33" fill="#c28d3a" opacity="0.68"/>
  <polygon points="339.35,298.35 329.83,342.35 339.22,298.32" fill="#c38d3a" opacity="0.68"/>
  <polygon points="339.46,298.34 331.30,342.46 339.32,298.32" fill="#c38e3a" opacity="0.68"/>
  <polygon points="339.56,298.33 332.78,342.47 339.43,298.30" fill="#c38e3a" opacity="0.68"/>
  <polygon points="339.67,298.31 334.25,342.40 339.53,298.29" fill="#c38f3b" opacity="0.68"/>
  <polygon points="339.77,298.28 335.71,342.24 339.64,298.27" fill="#c48f3b" opacity="0.67"/>
  <polygon points="339.87,298.26 337.16,342.03 339.74,298.25" fill="#c4903b" opacity="0.67"/>
  <polygon points="339.97,298.23 338.59,341.80 339.84,298.23" fill="#c4903b" opacity="0.67"/>
  <polygon points="340.06,298.20 340.00,341.58 339.94,298.20" fill="#c5913b" opacity="0.67"/>
  <polygon points="340.16,298.17 341.40,341.38 340.03,298.17" fill="#c5913c" opacity="0.67"/>
  <polygon points="340.25,298.13 342.79,341.12 340.13,298.14" fill="#c5913c" opacity="0.67"/>
  <polygon points="340.34,298.09 344.16,340.78 340.22,298.10" fill="#c5923c" opacity="0.67"/>
  <polygon points="340.43,298.05 345.51,340.39 340.31,298.06" fill="#c6923c" opacity="0.67"/>
  <polygon points="340.52,298.00 346.84,339.95 340.40,298.02" fill="#c6933c" opacity="0.66"/>
  <polygon points="340.60,297.95 348.15,339.50 340.48,297.98" fill="#c6933c" opacity="0.66"/>
  <polygon points="340.68,297.90 349.44,338.99 340.57,297.93" fill="#c7943c" opacity="0.66"/>
  <polygon points="340.76,297.85 350.71,338.44 340.65,297.88" fill="#c7943d" opacity="0.66"/>
  <polygon points="340.84,297.80 351.94,337.84 340.73,297.83" fill="#c7943d" opacity="0.66"/>
  <polygon points="340.92,297.74 353.15,337.21 340.80,297.78" fill="#c7953d" opacity="0.66"/>
  <polygon points="340.99,297.69 354.34,336.57 340.88,297.72" fill="#c8953d" opacity="0.65"/>
  <polygon points="341.06,297.63 355.51,335.89 340.95,297.67" fill="#c8963d" opacity="0.65"/>
  <polygon points="341.12,297.56 356.65,335.19 341.02,297.61" fill="#c8963d" opacity="0.65"/>
  <polygon points="341.19,297.50 357.75,334.45 341.09,297.55" fill="#c9973e" opacity="0.65"/>
  <polygon points="341.25,297.44 358.83,333.68 341.15,297.49" fill="#c9973e" opacity="0.65"/>
  <polygon points="341.31,297.37 359.88,332.88 341.21,297.42" fill="#c9973e" opacity="0.65"/>
  <polygon points="341.36,297.30 360.89,332.05 341.27,297.36" fill="#c9983e" opacity="0.65"/>
  <polygon points="341.41,297.24 361.88,331.19 341.32,297.29" fill="#ca983e" opacity="0.64"/>
  <polygon points="341.46,297.17 362.83,330.31 341.38,297.22" fill="#ca983e" opacity="0.64"/>
  <polygon points="341.51,297.10 363.74,329.40 341.42,297.16" fill="#ca993e" opacity="0.64"/>
  <polygon points="341.55,297.03 364.63,328.47 341.47,297.09" fill="#ca993e" opacity="0.64"/>
  <polygon points="341.60,296.95 365.47,327.51 341.52,297.02" fill="#cb9a3e" opacity="0.64"/>
  <polygon points="341.63,296.88 366.28,326.54 341.56,296.95" fill="#cb9a3e" opacity="0.64"/>
  <polygon points="341.67,296.81 367.06,325.54 341.59,296.88" fill="#cb9a3e" opacity="0.63"/>
  <polygon points="341.70,296.74 367.80,324.53 341.63,296.80" fill="#cb9b3e" opacity="0.63"/>
  <polygon points="341.73,296.66 368.50,323.50 341.66,296.73" fill="#cc9b3e" opacity="0.63"/>
  <polygon points="341.76,296.59 369.16,322.45 341.69,296.66" fill="#cc9c3e" opacity="0.63"/>
  <polygon points="341.78,296.51 369.79,321.39 341.72,296.59" fill="#cc9c3e" opacity="0.63"/>
  <polygon points="341.80,296.44 370.38,320.31 341.74,296.51" fill="#cd9c3e" opacity="0.63"/>
  <polygon points="341.82,296.37 370.92,319.23 341.76,296.44" fill="#cd9d3e" opacity="0.63"/>
  <polygon points="341.84,296.29 371.43,318.13 341.78,296.37" fill="#cd9d3e" opacity="0.62"/>
  <polygon points="341.85,296.22 371.90,317.02 341.80,296.30" fill="#cd9d3e" opacity="0.62"/>
  <polygon points="341.86,296.15 372.34,315.91 341.81,296.22" fill="#ce9e3e" opacity="0.62"/>
  <polygon points="341.87,296.08 372.73,314.79 341.82,296.15" fill="#ce9e3e" opacity="0.62"/>
  <polygon points="341.87,296.01 373.08,313.66 341.83,296.08" fill="#ce9f3e" opacity="0.62"/>
  <polygon points="341.87,295.93 373.40,312.53 341.83,296.01" fill="#ce9f3e" opacity="0.62"/>
  <polygon points="341.87,295.86 373.67,311.40 341.83,295.94" fill="#cf9f3e" opacity="0.61"/>
  <polygon points="341.87,295.80 373.91,310.26 341.83,295.87" fill="#cfa03e" opacity="0.61"/>
  <polygon points="341.86,295.73 374.11,309.13 341.83,295.80" fill="#cfa03e" opacity="0.61"/>
  <polygon points="341.86,295.66 374.27,308.00 341.83,295.74" fill="#d0a13e" opacity="0.61"/>
  <polygon points="341.84,295.59 374.39,306.87 341.82,295.67" fill="#d0a13e" opacity="0.61"/>
  <polygon points="341.83,295.53 374.47,305.74 341.81,295.60" fill="#d0a23e" opacity="0.60"/>
  <polygon points="341.82,295.47 374.51,304.62 341.80,295.54" fill="#d0a23e" opacity="0.60"/>
  <polygon points="341.80,295.41 374.52,303.51 341.78,295.48" fill="#d1a23e" opacity="0.60"/>
  <polygon points="341.78,295.34 374.49,302.40 341.77,295.42" fill="#d1a33e" opacity="0.60"/>
  <polygon points="341.76,295.29 374.42,301.31 341.75,295.36" fill="#d1a33e" opacity="0.60"/>
  <polygon points="341.74,295.23 374.32,300.22 341.73,295.30" fill="#d2a43e" opacity="0.60"/>
  <polygon points="341.71,295.17 374.18,299.15 341.71,295.24" fill="#d2a43e" opacity="0.59"/>
  <polygon points="341.69,295.12 374.01,298.09 341.68,295.19" fill="#d2a43e" opacity="0.59"/>
  <polygon points="341.66,295.07 373.80,297.04 341.66,295.13" fill="#d3a53e" opacity="0.59"/>
  <polygon points="341.63,295.02 373.56,296.01 341.63,295.08" fill="#d3a53e" opacity="0.59"/>
  <polygon points="341.60,294.97 373.28,295.00 341.60,295.03" fill="#d3a63e" opacity="0.59"/>
  <polygon points="341.57,294.92 372.98,294.00 341.57,294.98" fill="#d3a63e" opacity="0.58"/>
  <polygon points="341.53,294.88 372.64,293.03 341.54,294.94" fill="#d4a73e" opacity="0.58"/>
  <polygon points="341.50,294.83 372.27,292.07 341.50,294.89" fill="#d4a73f" opacity="0.58"/>
  <polygon points="341.46,294.79 371.87,291.13 341.47,294.85" fill="#d4a83f" opacity="0.58"/>
  <polygon points="341.42,294.75 371.44,290.21 341.43,294.81" fill="#d5a83f" opacity="0.58"/>
  <polygon points="341.39,294.72 370.98,289.32 341.40,294.77" fill="#d5a93f" opacity="0.57"/>
  <polygon points="341.35,294.68 370.50,288.45 341.36,294.74" fill="#d5a93f" opacity="0.57"/>
  <polygon points="341.31,294.65 369.99,287.61 341.32,294.70" fill="#d6a93f" opacity="0.57"/>
  <polygon points="341.27,294.62 369.45,286.79 341.28,294.67" fill="#d6aa3f" opacity="0.57"/>
  <polygon points="341.23,294.59 368.89,286.00 341.24,294.64" fill="#d6aa3f" opacity="0.56"/>
  <polygon points="341.18,294.56 368.31,285.23 341.20,294.61" fill="#d7ab3f" opacity="0.56"/>
  <polygon points="341.14,294.54 367.71,284.49 341.16,294.59" fill="#d7ab3f" opacity="0.56"/>
  <polygon points="341.10,294.52 367.08,283.78 341.12,294.56" fill="#d7ac3f" opacity="0.56"/>
  <polygon points="341.06,294.50 366.43,283.10 341.08,294.54" fill="#d8ac3f" opacity="0.56"/>
  <polygon points="341.01,294.48 365.77,282.45 341.03,294.52" fill="#d8ad3f" opacity="0.55"/>
  <polygon points="340.97,294.47 365.09,281.83 340.99,294.51" fill="#d8ad3f" opacity="0.55"/>
  <polygon points="340.93,294.45 364.39,281.24 340.95,294.49" fill="#d9ae3f" opacity="0.55"/>
  <polygon points="340.88,294.44 363.67,280.69 340.91,294.48" fill="#d9ae3f" opacity="0.55"/>
  <polygon points="340.84,294.43 362.95,280.16 340.86,294.47" fill="#d9af3f" opacity="0.54"/>
  <polygon points="340.80,294.42 362.21,279.67 340.82,294.46" fill="#daaf3f" opacity="0.54"/>
  <polygon points="340.76,294.42 361.45,279.21 340.78,294.45" fill="#dab03f" opacity="0.54"/>
  <polygon points="340.71,294.42 360.69,278.79 340.74,294.45" fill="#dab03f" opacity="0.54"/>
  <polygon points="340.67,294.41 359.92,278.40 340.70,294.44" fill="#dbb13f" opacity="0.53"/>
  <polygon points="340.63,294.42 359.14,278.04 340.66,294.44" fill="#dbb23f" opacity="0.53"/>
  <polygon points="340.59,294.42 358.35,277.72 340.62,294.44" fill="#dcb23f" opacity="0.53"/>
  <polygon points="340.55,294.42 357.56,277.44 340.58,294.45" fill="#dcb33f" opacity="0.53"/>
  <polygon points="340.52,294.43 356.77,277.19 340.54,294.45" fill="#ddb33f" opacity="0.52"/>
  <polygon points="340.48,294.44 355.97,276.97 340.50,294.46" fill="#ddb43f" opacity="0.52"/>
  <polygon points="340.44,294.45 355.17,276.79 340.46,294.47" fill="#ddb43f" opacity="0.52"/>
  <polygon points="340.41,294.46 354.38,276.65 340.43,294.48" fill="#deb53f" opacity="0.51"/>
  <polygon points="340.37,294.47 353.58,276.54 340.39,294.49" fill="#deb63f" opacity="0.51"/>
  <polygon points="340.34,294.49 352.79,276.47 340.36,294.50" fill="#dfb63f" opacity="0.51"/>
  <polygon points="340.31,294.50 352.00,276.44 340.33,294.52" fill="#dfb73f" opacity="0.50"/>
  <polygon points="340.28,294.52 351.22,276.44 340.30,294.53" fill="#dfb73f" opacity="0.50"/>
  <polygon points="340.25,294.54 350.44,276.48 340.27,294.55" fill="#e0b841" opacity="0.50"/>
  <polygon points="340.22,294.56 349.68,276.56 340.24,294.57" fill="#e0b942" opacity="0.49"/>
  <polygon points="340.19,294.58 348.92,276.68 340.21,294.59" fill="#e0b943" opacity="0.49"/>
  <polygon points="340.17,294.60 348.18,276.83 340.18,294.61" fill="#e1ba44" opacity="0.49"/>
  <polygon points="340.15,294.63 347.45,277.03 340.16,294.63" fill="#e1bb45" opacity="0.48"/>
  <polygon points="340.12,294.65 346.73,277.26 340.14,294.66" fill="#e1bb46" opacity="0.48"/>
  <polygon points="340.10,294.68 346.03,277.53 340.12,294.68" fill="#e2bc48" opacity="0.47"/>
  <polygon points="340.09,294.70 345.35,277.84 340.10,294.71" fill="#e2bd49" opacity="0.47"/>
  <polygon points="340.07,294.73 344.68,278.20 340.08,294.73" fill="#e3be4a" opacity="0.47"/>
  <polygon points="340.05,294.76 344.04,278.59 340.06,294.76" fill="#e3bf4c" opacity="0.46"/>
  <polygon points="340.04,294.79 343.43,279.04 340.05,294.79" fill="#e3bf4d" opacity="0.46"/>
  <polygon points="340.03,294.82 342.83,279.54 340.04,294.82" fill="#e4c04f" opacity="0.45"/>
  <polygon points="340.02,294.85 342.27,280.09 340.03,294.85" fill="#e4c151" opacity="0.44"/>
  <polygon points="340.01,294.88 341.74,280.71 340.02,294.88" fill="#e5c252" opacity="0.44"/>
  <polygon points="340.01,294.91 341.23,281.41 340.01,294.91" fill="#e5c354" opacity="0.43"/>
  <polygon points="340.00,294.94 340.77,282.22 340.01,294.94" fill="#e6c556" opacity="0.42"/>
  <polygon points="340.00,294.97 340.36,283.22 340.00,294.97" fill="#e7c659" opacity="0.41"/>
</svg>